<svg width="625" height="400" viewBox="0 0 625 400" fill="none" xmlns="http://www.w3.org/2000/svg" class="fade-hidden fade-from-left">
<rect x="0.5" y="320.5" width="624" height="79" fill="url(#paint0_linear_97_410)" stroke="black"/>
<rect x="0.5" y="160.5" width="624" height="79" fill="url(#paint1_linear_97_410)" stroke="black"/>
<rect x="0.5" y="0.5" width="624" height="79" fill="url(#paint2_linear_97_410)" stroke="black"/>
<rect x="0.5" y="80.5" width="624" height="79" fill="url(#paint3_linear_97_410)" stroke="black"/>
<rect x="0.5" y="240.5" width="624" height="79" fill="url(#paint4_linear_97_410)" stroke="black"/>
<path d="M21 400C21 397.791 22.7909 396 25 396H61C63.2091 396 65 397.791 65 400V400H21V400Z" fill="#555555"/>
<path d="M81 400C81 395.582 84.5817 392 89 392H117C121.418 392 125 395.582 125 400V400H81V400Z" fill="#555555"/>
<path d="M141 388C141 382.477 145.477 378 151 378H175C180.523 378 185 382.477 185 388V400H141V388Z" fill="#555555"/>
<path d="M201 379C201 373.477 205.477 369 211 369H235C240.523 369 245 373.477 245 379V400H201V379Z" fill="#555555"/>
<path d="M261 372C261 366.477 265.477 362 271 362H295C300.523 362 305 366.477 305 372V400H261V372Z" fill="#555555"/>
<path d="M321 363C321 357.477 325.477 353 331 353H355C360.523 353 365 357.477 365 363V400H321V363Z" fill="#555555"/>
<path d="M381 233C381 227.477 385.477 223 391 223H415C420.523 223 425 227.477 425 233V400H381V233Z" fill="#E85823"/>
<path d="M441 169C441 163.477 445.477 159 451 159H475C480.523 159 485 163.477 485 169V400H441V169Z" fill="#E85823"/>
<path d="M501 137C501 131.477 505.477 127 511 127H535C540.523 127 545 131.477 545 137V400H501V137Z" fill="#E85823"/>
<path d="M561 90C561 84.4772 565.477 80 571 80H595C600.523 80 605 84.4772 605 90V400H561V90Z" fill="#E85823"/>
<rect x="561.25" y="41.25" width="43.5" height="25.5" rx="12.75" fill="#E85823" fill-opacity="0.09" stroke="#E85823" stroke-width="0.5"/>
<path d="M572.75 49.796C573.573 49.796 574.266 49.9737 574.83 50.329C575.402 50.6843 575.835 51.2 576.13 51.876C576.424 52.5433 576.572 53.3623 576.572 54.333C576.572 55.3643 576.39 56.2353 576.026 56.946C575.662 57.6567 575.159 58.194 574.518 58.558C573.876 58.922 573.127 59.104 572.269 59.104C571.844 59.104 571.432 59.0607 571.034 58.974C570.644 58.8873 570.301 58.753 570.007 58.571L570.501 57.557C570.743 57.713 571.012 57.8257 571.307 57.895C571.61 57.9557 571.926 57.986 572.256 57.986C573.174 57.986 573.907 57.7 574.453 57.128C574.999 56.5473 575.272 55.6893 575.272 54.554C575.272 54.372 575.263 54.1553 575.246 53.904C575.228 53.6527 575.189 53.4057 575.129 53.163L575.558 53.605C575.436 54.0037 575.233 54.3417 574.947 54.619C574.669 54.8877 574.331 55.0913 573.933 55.23C573.543 55.36 573.114 55.425 572.646 55.425C572.048 55.425 571.515 55.3123 571.047 55.087C570.579 54.8617 570.21 54.5453 569.942 54.138C569.673 53.722 569.539 53.2323 569.539 52.669C569.539 52.0797 569.677 51.5727 569.955 51.148C570.241 50.7147 570.626 50.381 571.112 50.147C571.606 49.913 572.152 49.796 572.75 49.796ZM572.802 50.849C572.412 50.849 572.065 50.9227 571.762 51.07C571.458 51.2173 571.22 51.421 571.047 51.681C570.882 51.941 570.8 52.253 570.8 52.617C570.8 53.1543 570.986 53.5833 571.359 53.904C571.731 54.216 572.234 54.372 572.867 54.372C573.283 54.372 573.647 54.294 573.959 54.138C574.279 53.982 574.526 53.7697 574.7 53.501C574.882 53.2323 574.973 52.9333 574.973 52.604C574.973 52.2833 574.89 51.993 574.726 51.733C574.561 51.473 574.318 51.2607 573.998 51.096C573.677 50.9313 573.278 50.849 572.802 50.849ZM581.54 59.104C580.83 59.104 580.193 58.922 579.629 58.558C579.075 58.194 578.633 57.6653 578.303 56.972C577.983 56.2787 577.822 55.438 577.822 54.45C577.822 53.462 577.983 52.6213 578.303 51.928C578.633 51.2347 579.075 50.706 579.629 50.342C580.193 49.978 580.83 49.796 581.54 49.796C582.242 49.796 582.875 49.978 583.438 50.342C584.002 50.706 584.444 51.2347 584.764 51.928C585.085 52.6213 585.245 53.462 585.245 54.45C585.245 55.438 585.085 56.2787 584.764 56.972C584.444 57.6653 584.002 58.194 583.438 58.558C582.875 58.922 582.242 59.104 581.54 59.104ZM581.54 57.947C582.017 57.947 582.433 57.817 582.788 57.557C583.152 57.297 583.434 56.907 583.633 56.387C583.841 55.867 583.945 55.2213 583.945 54.45C583.945 53.6787 583.841 53.033 583.633 52.513C583.434 51.993 583.152 51.603 582.788 51.343C582.433 51.083 582.017 50.953 581.54 50.953C581.064 50.953 580.643 51.083 580.279 51.343C579.915 51.603 579.629 51.993 579.421 52.513C579.222 53.033 579.122 53.6787 579.122 54.45C579.122 55.2213 579.222 55.867 579.421 56.387C579.629 56.907 579.915 57.297 580.279 57.557C580.643 57.817 581.064 57.947 581.54 57.947ZM587.741 59L593.955 49.9H594.956L588.742 59H587.741ZM588.469 54.788C588.053 54.788 587.685 54.684 587.364 54.476C587.043 54.268 586.792 53.9777 586.61 53.605C586.437 53.2323 586.35 52.799 586.35 52.305C586.35 51.811 586.437 51.3777 586.61 51.005C586.792 50.6323 587.043 50.342 587.364 50.134C587.685 49.926 588.053 49.822 588.469 49.822C588.894 49.822 589.262 49.926 589.574 50.134C589.895 50.342 590.142 50.6323 590.315 51.005C590.488 51.3777 590.575 51.811 590.575 52.305C590.575 52.799 590.488 53.2323 590.315 53.605C590.142 53.9777 589.895 54.268 589.574 54.476C589.262 54.684 588.894 54.788 588.469 54.788ZM588.469 54.047C588.868 54.047 589.18 53.8953 589.405 53.592C589.63 53.28 589.743 52.851 589.743 52.305C589.743 51.759 589.63 51.3343 589.405 51.031C589.18 50.719 588.868 50.563 588.469 50.563C588.079 50.563 587.767 50.719 587.533 51.031C587.308 51.3343 587.195 51.759 587.195 52.305C587.195 52.8423 587.308 53.267 587.533 53.579C587.767 53.891 588.079 54.047 588.469 54.047ZM594.228 59.078C593.812 59.078 593.444 58.974 593.123 58.766C592.802 58.558 592.555 58.2677 592.382 57.895C592.209 57.5223 592.122 57.089 592.122 56.595C592.122 56.101 592.209 55.6677 592.382 55.295C592.555 54.9223 592.802 54.632 593.123 54.424C593.444 54.216 593.812 54.112 594.228 54.112C594.653 54.112 595.021 54.216 595.333 54.424C595.654 54.632 595.901 54.9223 596.074 55.295C596.256 55.6677 596.347 56.101 596.347 56.595C596.347 57.089 596.256 57.5223 596.074 57.895C595.901 58.2677 595.654 58.558 595.333 58.766C595.021 58.974 594.653 59.078 594.228 59.078ZM594.228 58.337C594.618 58.337 594.926 58.1853 595.151 57.882C595.385 57.57 595.502 57.141 595.502 56.595C595.502 56.0577 595.385 55.633 595.151 55.321C594.926 55.009 594.618 54.853 594.228 54.853C593.838 54.853 593.526 55.009 593.292 55.321C593.067 55.6243 592.954 56.049 592.954 56.595C592.954 57.141 593.067 57.57 593.292 57.882C593.526 58.1853 593.838 58.337 594.228 58.337Z" fill="white"/>
<rect x="501.25" y="89.25" width="43.5" height="24.5" rx="12.25" fill="#E85823" fill-opacity="0.09" stroke="#E85823" stroke-width="0.5"/>
<path d="M513.343 106.104C512.606 106.104 511.969 105.996 511.432 105.779C510.895 105.562 510.479 105.255 510.184 104.856C509.889 104.449 509.742 103.972 509.742 103.426C509.742 102.889 509.881 102.434 510.158 102.061C510.444 101.68 510.856 101.394 511.393 101.203C511.93 101.004 512.58 100.904 513.343 100.904C514.106 100.904 514.756 101.004 515.293 101.203C515.839 101.394 516.255 101.68 516.541 102.061C516.827 102.442 516.97 102.897 516.97 103.426C516.97 103.972 516.823 104.449 516.528 104.856C516.233 105.255 515.813 105.562 515.267 105.779C514.721 105.996 514.08 106.104 513.343 106.104ZM513.343 105.051C514.071 105.051 514.639 104.904 515.046 104.609C515.462 104.306 515.67 103.898 515.67 103.387C515.67 102.884 515.462 102.49 515.046 102.204C514.639 101.909 514.071 101.762 513.343 101.762C512.624 101.762 512.06 101.909 511.653 102.204C511.246 102.49 511.042 102.884 511.042 103.387C511.042 103.898 511.246 104.306 511.653 104.609C512.06 104.904 512.624 105.051 513.343 105.051ZM513.343 101.606C512.65 101.606 512.06 101.515 511.575 101.333C511.09 101.142 510.717 100.874 510.457 100.527C510.197 100.172 510.067 99.7513 510.067 99.266C510.067 98.7547 510.201 98.317 510.47 97.953C510.747 97.5803 511.133 97.2943 511.627 97.095C512.121 96.8957 512.693 96.796 513.343 96.796C514.002 96.796 514.578 96.8957 515.072 97.095C515.566 97.2943 515.952 97.5803 516.229 97.953C516.506 98.317 516.645 98.7547 516.645 99.266C516.645 99.7513 516.515 100.172 516.255 100.527C515.995 100.874 515.618 101.142 515.124 101.333C514.63 101.515 514.036 101.606 513.343 101.606ZM513.343 100.774C513.976 100.774 514.47 100.644 514.825 100.384C515.189 100.124 515.371 99.7687 515.371 99.318C515.371 98.8587 515.185 98.499 514.812 98.239C514.439 97.979 513.95 97.849 513.343 97.849C512.736 97.849 512.251 97.979 511.887 98.239C511.532 98.499 511.354 98.8587 511.354 99.318C511.354 99.7687 511.527 100.124 511.874 100.384C512.229 100.644 512.719 100.774 513.343 100.774ZM521.098 106.104C520.457 106.104 519.833 106.004 519.226 105.805C518.628 105.606 518.138 105.337 517.757 104.999L518.355 103.972C518.658 104.258 519.053 104.492 519.538 104.674C520.023 104.856 520.539 104.947 521.085 104.947C521.778 104.947 522.311 104.8 522.684 104.505C523.057 104.21 523.243 103.816 523.243 103.322C523.243 102.984 523.161 102.689 522.996 102.438C522.831 102.187 522.545 101.996 522.138 101.866C521.739 101.727 521.189 101.658 520.487 101.658H518.42L518.901 96.9H524.036V98.031H519.382L520.058 97.394L519.681 101.151L519.005 100.527H520.76C521.67 100.527 522.402 100.644 522.957 100.878C523.512 101.112 523.915 101.437 524.166 101.853C524.417 102.26 524.543 102.733 524.543 103.27C524.543 103.79 524.417 104.267 524.166 104.7C523.915 105.125 523.533 105.467 523.022 105.727C522.519 105.978 521.878 106.104 521.098 106.104ZM526.746 106L532.96 96.9H533.961L527.747 106H526.746ZM527.474 101.788C527.058 101.788 526.69 101.684 526.369 101.476C526.048 101.268 525.797 100.978 525.615 100.605C525.442 100.232 525.355 99.799 525.355 99.305C525.355 98.811 525.442 98.3777 525.615 98.005C525.797 97.6323 526.048 97.342 526.369 97.134C526.69 96.926 527.058 96.822 527.474 96.822C527.899 96.822 528.267 96.926 528.579 97.134C528.9 97.342 529.147 97.6323 529.32 98.005C529.493 98.3777 529.58 98.811 529.58 99.305C529.58 99.799 529.493 100.232 529.32 100.605C529.147 100.978 528.9 101.268 528.579 101.476C528.267 101.684 527.899 101.788 527.474 101.788ZM527.474 101.047C527.873 101.047 528.185 100.895 528.41 100.592C528.635 100.28 528.748 99.851 528.748 99.305C528.748 98.759 528.635 98.3343 528.41 98.031C528.185 97.719 527.873 97.563 527.474 97.563C527.084 97.563 526.772 97.719 526.538 98.031C526.313 98.3343 526.2 98.759 526.2 99.305C526.2 99.8423 526.313 100.267 526.538 100.579C526.772 100.891 527.084 101.047 527.474 101.047ZM533.233 106.078C532.817 106.078 532.449 105.974 532.128 105.766C531.807 105.558 531.56 105.268 531.387 104.895C531.214 104.522 531.127 104.089 531.127 103.595C531.127 103.101 531.214 102.668 531.387 102.295C531.56 101.922 531.807 101.632 532.128 101.424C532.449 101.216 532.817 101.112 533.233 101.112C533.658 101.112 534.026 101.216 534.338 101.424C534.659 101.632 534.906 101.922 535.079 102.295C535.261 102.668 535.352 103.101 535.352 103.595C535.352 104.089 535.261 104.522 535.079 104.895C534.906 105.268 534.659 105.558 534.338 105.766C534.026 105.974 533.658 106.078 533.233 106.078ZM533.233 105.337C533.623 105.337 533.931 105.185 534.156 104.882C534.39 104.57 534.507 104.141 534.507 103.595C534.507 103.058 534.39 102.633 534.156 102.321C533.931 102.009 533.623 101.853 533.233 101.853C532.843 101.853 532.531 102.009 532.297 102.321C532.072 102.624 531.959 103.049 531.959 103.595C531.959 104.141 532.072 104.57 532.297 104.882C532.531 105.185 532.843 105.337 533.233 105.337Z" fill="white"/>
<rect x="441.25" y="122.25" width="43.5" height="24.5" rx="12.25" fill="#E85823" fill-opacity="0.09" stroke="#E85823" stroke-width="0.5"/>
<path d="M455.106 139.104C454.369 139.104 453.732 138.996 453.195 138.779C452.658 138.562 452.242 138.255 451.947 137.856C451.652 137.449 451.505 136.972 451.505 136.426C451.505 135.889 451.644 135.434 451.921 135.061C452.207 134.68 452.619 134.394 453.156 134.203C453.693 134.004 454.343 133.904 455.106 133.904C455.869 133.904 456.519 134.004 457.056 134.203C457.602 134.394 458.018 134.68 458.304 135.061C458.59 135.442 458.733 135.897 458.733 136.426C458.733 136.972 458.586 137.449 458.291 137.856C457.996 138.255 457.576 138.562 457.03 138.779C456.484 138.996 455.843 139.104 455.106 139.104ZM455.106 138.051C455.834 138.051 456.402 137.904 456.809 137.609C457.225 137.306 457.433 136.898 457.433 136.387C457.433 135.884 457.225 135.49 456.809 135.204C456.402 134.909 455.834 134.762 455.106 134.762C454.387 134.762 453.823 134.909 453.416 135.204C453.009 135.49 452.805 135.884 452.805 136.387C452.805 136.898 453.009 137.306 453.416 137.609C453.823 137.904 454.387 138.051 455.106 138.051ZM455.106 134.606C454.413 134.606 453.823 134.515 453.338 134.333C452.853 134.142 452.48 133.874 452.22 133.527C451.96 133.172 451.83 132.751 451.83 132.266C451.83 131.755 451.964 131.317 452.233 130.953C452.51 130.58 452.896 130.294 453.39 130.095C453.884 129.896 454.456 129.796 455.106 129.796C455.765 129.796 456.341 129.896 456.835 130.095C457.329 130.294 457.715 130.58 457.992 130.953C458.269 131.317 458.408 131.755 458.408 132.266C458.408 132.751 458.278 133.172 458.018 133.527C457.758 133.874 457.381 134.142 456.887 134.333C456.393 134.515 455.799 134.606 455.106 134.606ZM455.106 133.774C455.739 133.774 456.233 133.644 456.588 133.384C456.952 133.124 457.134 132.769 457.134 132.318C457.134 131.859 456.948 131.499 456.575 131.239C456.202 130.979 455.713 130.849 455.106 130.849C454.499 130.849 454.014 130.979 453.65 131.239C453.295 131.499 453.117 131.859 453.117 132.318C453.117 132.769 453.29 133.124 453.637 133.384C453.992 133.644 454.482 133.774 455.106 133.774ZM461.457 139V130.42L462.016 131.031H459.403V129.9H462.744V139H461.457ZM465.983 139L472.197 129.9H473.198L466.984 139H465.983ZM466.711 134.788C466.295 134.788 465.927 134.684 465.606 134.476C465.285 134.268 465.034 133.978 464.852 133.605C464.679 133.232 464.592 132.799 464.592 132.305C464.592 131.811 464.679 131.378 464.852 131.005C465.034 130.632 465.285 130.342 465.606 130.134C465.927 129.926 466.295 129.822 466.711 129.822C467.136 129.822 467.504 129.926 467.816 130.134C468.137 130.342 468.384 130.632 468.557 131.005C468.73 131.378 468.817 131.811 468.817 132.305C468.817 132.799 468.73 133.232 468.557 133.605C468.384 133.978 468.137 134.268 467.816 134.476C467.504 134.684 467.136 134.788 466.711 134.788ZM466.711 134.047C467.11 134.047 467.422 133.895 467.647 133.592C467.872 133.28 467.985 132.851 467.985 132.305C467.985 131.759 467.872 131.334 467.647 131.031C467.422 130.719 467.11 130.563 466.711 130.563C466.321 130.563 466.009 130.719 465.775 131.031C465.55 131.334 465.437 131.759 465.437 132.305C465.437 132.842 465.55 133.267 465.775 133.579C466.009 133.891 466.321 134.047 466.711 134.047ZM472.47 139.078C472.054 139.078 471.686 138.974 471.365 138.766C471.044 138.558 470.797 138.268 470.624 137.895C470.451 137.522 470.364 137.089 470.364 136.595C470.364 136.101 470.451 135.668 470.624 135.295C470.797 134.922 471.044 134.632 471.365 134.424C471.686 134.216 472.054 134.112 472.47 134.112C472.895 134.112 473.263 134.216 473.575 134.424C473.896 134.632 474.143 134.922 474.316 135.295C474.498 135.668 474.589 136.101 474.589 136.595C474.589 137.089 474.498 137.522 474.316 137.895C474.143 138.268 473.896 138.558 473.575 138.766C473.263 138.974 472.895 139.078 472.47 139.078ZM472.47 138.337C472.86 138.337 473.168 138.185 473.393 137.882C473.627 137.57 473.744 137.141 473.744 136.595C473.744 136.058 473.627 135.633 473.393 135.321C473.168 135.009 472.86 134.853 472.47 134.853C472.08 134.853 471.768 135.009 471.534 135.321C471.309 135.624 471.196 136.049 471.196 136.595C471.196 137.141 471.309 137.57 471.534 137.882C471.768 138.185 472.08 138.337 472.47 138.337Z" fill="white"/>
<rect x="381.25" y="185.25" width="43.5" height="24.5" rx="12.25" fill="#E85823" fill-opacity="0.09" stroke="#E85823" stroke-width="0.5"/>
<path d="M392.28 202L396.141 193.446L396.479 194.031H391.071L391.721 193.394V195.656H390.473V192.9H397.337V193.784L393.658 202H392.28ZM401.186 202.104C400.544 202.104 399.92 202.004 399.314 201.805C398.716 201.606 398.226 201.337 397.845 200.999L398.443 199.972C398.746 200.258 399.14 200.492 399.626 200.674C400.111 200.856 400.627 200.947 401.173 200.947C401.866 200.947 402.399 200.8 402.772 200.505C403.144 200.21 403.331 199.816 403.331 199.322C403.331 198.984 403.248 198.689 403.084 198.438C402.919 198.187 402.633 197.996 402.226 197.866C401.827 197.727 401.277 197.658 400.575 197.658H398.508L398.989 192.9H404.124V194.031H399.47L400.146 193.394L399.769 197.151L399.093 196.527H400.848C401.758 196.527 402.49 196.644 403.045 196.878C403.599 197.112 404.002 197.437 404.254 197.853C404.505 198.26 404.631 198.733 404.631 199.27C404.631 199.79 404.505 200.267 404.254 200.7C404.002 201.125 403.621 201.467 403.11 201.727C402.607 201.978 401.966 202.104 401.186 202.104ZM406.833 202L413.047 192.9H414.048L407.834 202H406.833ZM407.561 197.788C407.145 197.788 406.777 197.684 406.456 197.476C406.136 197.268 405.884 196.978 405.702 196.605C405.529 196.232 405.442 195.799 405.442 195.305C405.442 194.811 405.529 194.378 405.702 194.005C405.884 193.632 406.136 193.342 406.456 193.134C406.777 192.926 407.145 192.822 407.561 192.822C407.986 192.822 408.354 192.926 408.666 193.134C408.987 193.342 409.234 193.632 409.407 194.005C409.581 194.378 409.667 194.811 409.667 195.305C409.667 195.799 409.581 196.232 409.407 196.605C409.234 196.978 408.987 197.268 408.666 197.476C408.354 197.684 407.986 197.788 407.561 197.788ZM407.561 197.047C407.96 197.047 408.272 196.895 408.497 196.592C408.723 196.28 408.835 195.851 408.835 195.305C408.835 194.759 408.723 194.334 408.497 194.031C408.272 193.719 407.96 193.563 407.561 193.563C407.171 193.563 406.859 193.719 406.625 194.031C406.4 194.334 406.287 194.759 406.287 195.305C406.287 195.842 406.4 196.267 406.625 196.579C406.859 196.891 407.171 197.047 407.561 197.047ZM413.32 202.078C412.904 202.078 412.536 201.974 412.215 201.766C411.895 201.558 411.648 201.268 411.474 200.895C411.301 200.522 411.214 200.089 411.214 199.595C411.214 199.101 411.301 198.668 411.474 198.295C411.648 197.922 411.895 197.632 412.215 197.424C412.536 197.216 412.904 197.112 413.32 197.112C413.745 197.112 414.113 197.216 414.425 197.424C414.746 197.632 414.993 197.922 415.166 198.295C415.348 198.668 415.439 199.101 415.439 199.595C415.439 200.089 415.348 200.522 415.166 200.895C414.993 201.268 414.746 201.558 414.425 201.766C414.113 201.974 413.745 202.078 413.32 202.078ZM413.32 201.337C413.71 201.337 414.018 201.185 414.243 200.882C414.477 200.57 414.594 200.141 414.594 199.595C414.594 199.058 414.477 198.633 414.243 198.321C414.018 198.009 413.71 197.853 413.32 197.853C412.93 197.853 412.618 198.009 412.384 198.321C412.159 198.624 412.046 199.049 412.046 199.595C412.046 200.141 412.159 200.57 412.384 200.882C412.618 201.185 412.93 201.337 413.32 201.337Z" fill="white"/>
<rect x="117.25" y="19.25" width="84.5" height="24.5" rx="12.25" fill="#E85823" fill-opacity="0.09" stroke="#E85823" stroke-width="0.5"/>
<path d="M147.03 35L150.517 27.3H151.606L155.104 35H153.949L150.836 27.916H151.276L148.163 35H147.03ZM148.515 33.075L148.812 32.195H153.146L153.465 33.075H148.515ZM156.253 35V28.653C156.253 28.081 156.418 27.6263 156.748 27.289C157.085 26.9443 157.562 26.772 158.178 26.772C158.405 26.772 158.621 26.8013 158.827 26.86C159.039 26.9113 159.219 26.9957 159.366 27.113L159.047 27.916C158.937 27.828 158.812 27.762 158.673 27.718C158.533 27.6667 158.387 27.641 158.233 27.641C157.925 27.641 157.69 27.729 157.529 27.905C157.367 28.0737 157.287 28.3267 157.287 28.664V29.445L157.309 29.929V35H156.253ZM155.263 30.039V29.17H158.981V30.039H155.263ZM161.979 35.066C161.392 35.066 160.937 34.9083 160.615 34.593C160.292 34.2777 160.131 33.8267 160.131 33.24V27.894H161.187V33.196C161.187 33.5113 161.264 33.7533 161.418 33.922C161.579 34.0907 161.806 34.175 162.1 34.175C162.43 34.175 162.705 34.0833 162.925 33.9L163.255 34.659C163.093 34.7983 162.899 34.901 162.672 34.967C162.452 35.033 162.221 35.066 161.979 35.066ZM159.141 30.039V29.17H162.859V30.039H159.141ZM166.934 35.066C166.311 35.066 165.761 34.9377 165.284 34.681C164.815 34.4243 164.448 34.0723 164.184 33.625C163.927 33.1777 163.799 32.6643 163.799 32.085C163.799 31.5057 163.924 30.9923 164.173 30.545C164.43 30.0977 164.778 29.7493 165.218 29.5C165.665 29.2433 166.168 29.115 166.725 29.115C167.29 29.115 167.788 29.2397 168.221 29.489C168.654 29.7383 168.991 30.0903 169.233 30.545C169.482 30.9923 169.607 31.5167 169.607 32.118C169.607 32.162 169.603 32.2133 169.596 32.272C169.596 32.3307 169.592 32.3857 169.585 32.437H164.624V31.678H169.035L168.606 31.942C168.613 31.568 168.536 31.2343 168.375 30.941C168.214 30.6477 167.99 30.4203 167.704 30.259C167.425 30.0903 167.099 30.006 166.725 30.006C166.358 30.006 166.032 30.0903 165.746 30.259C165.46 30.4203 165.236 30.6513 165.075 30.952C164.914 31.2453 164.833 31.5827 164.833 31.964V32.14C164.833 32.5287 164.921 32.877 165.097 33.185C165.28 33.4857 165.533 33.7203 165.856 33.889C166.179 34.0577 166.549 34.142 166.967 34.142C167.312 34.142 167.623 34.0833 167.902 33.966C168.188 33.8487 168.437 33.6727 168.65 33.438L169.233 34.12C168.969 34.428 168.639 34.6627 168.243 34.824C167.854 34.9853 167.418 35.066 166.934 35.066ZM171.073 35V29.17H172.085V30.754L171.986 30.358C172.148 29.9547 172.419 29.6467 172.8 29.434C173.182 29.2213 173.651 29.115 174.208 29.115V30.138C174.164 30.1307 174.12 30.127 174.076 30.127C174.04 30.127 174.003 30.127 173.966 30.127C173.402 30.127 172.954 30.2957 172.624 30.633C172.294 30.9703 172.129 31.458 172.129 32.096V35H171.073ZM177.527 35L181.014 27.3H182.103L185.601 35H184.446L181.333 27.916H181.773L178.66 35H177.527ZM179.012 33.075L179.309 32.195H183.643L183.962 33.075H179.012ZM186.75 35V27.3H187.85V35H186.75Z" fill="white"/>
<path fill-rule="evenodd" clip-rule="evenodd" d="M129.5 40C134.194 40 138 36.1944 138 31.5C138 26.8056 134.194 23 129.5 23C124.806 23 121 26.8056 121 31.5C121 36.1944 124.806 40 129.5 40ZM129.5 34C130.881 34 132 32.8807 132 31.5C132 30.1193 130.881 29 129.5 29C128.119 29 127 30.1193 127 31.5C127 32.8807 128.119 34 129.5 34Z" fill="#E85823"/>
<rect x="321.25" y="318.25" width="43.5" height="21.5" rx="10.75" fill="#ACACAC" fill-opacity="0.13" stroke="#999999" stroke-width="0.5"/>
<path d="M336.014 332V325.3L336.334 325.64H334.364V325H336.734V332H336.014ZM340.498 332.06C339.991 332.06 339.511 331.98 339.058 331.82C338.611 331.653 338.251 331.433 337.978 331.16L338.328 330.59C338.554 330.823 338.858 331.017 339.238 331.17C339.624 331.323 340.044 331.4 340.498 331.4C341.078 331.4 341.521 331.273 341.828 331.02C342.141 330.767 342.298 330.427 342.298 330C342.298 329.573 342.144 329.233 341.838 328.98C341.538 328.727 341.061 328.6 340.408 328.6H339.908V328.07L342.068 325.36L342.168 325.64H338.268V325H342.768V325.51L340.608 328.22L340.258 327.99H340.528C341.368 327.99 341.994 328.177 342.408 328.55C342.828 328.923 343.038 329.403 343.038 329.99C343.038 330.383 342.944 330.737 342.758 331.05C342.571 331.363 342.288 331.61 341.908 331.79C341.534 331.97 341.064 332.06 340.498 332.06ZM344.895 332L349.675 325H350.265L345.485 332H344.895ZM345.435 328.75C345.121 328.75 344.845 328.673 344.605 328.52C344.365 328.36 344.178 328.137 344.045 327.85C343.918 327.563 343.855 327.23 343.855 326.85C343.855 326.47 343.918 326.137 344.045 325.85C344.178 325.563 344.365 325.343 344.605 325.19C344.845 325.03 345.121 324.95 345.435 324.95C345.748 324.95 346.021 325.03 346.255 325.19C346.495 325.343 346.681 325.563 346.815 325.85C346.948 326.137 347.015 326.47 347.015 326.85C347.015 327.23 346.948 327.563 346.815 327.85C346.681 328.137 346.495 328.36 346.255 328.52C346.021 328.673 345.748 328.75 345.435 328.75ZM345.435 328.3C345.761 328.3 346.021 328.173 346.215 327.92C346.415 327.66 346.515 327.303 346.515 326.85C346.515 326.397 346.415 326.043 346.215 325.79C346.021 325.53 345.761 325.4 345.435 325.4C345.101 325.4 344.838 325.53 344.645 325.79C344.451 326.043 344.355 326.397 344.355 326.85C344.355 327.303 344.451 327.66 344.645 327.92C344.838 328.173 345.101 328.3 345.435 328.3ZM349.725 332.05C349.418 332.05 349.145 331.973 348.905 331.82C348.665 331.66 348.478 331.437 348.345 331.15C348.211 330.863 348.145 330.53 348.145 330.15C348.145 329.77 348.211 329.437 348.345 329.15C348.478 328.863 348.665 328.643 348.905 328.49C349.145 328.33 349.418 328.25 349.725 328.25C350.045 328.25 350.321 328.33 350.555 328.49C350.795 328.643 350.978 328.863 351.105 329.15C351.238 329.437 351.305 329.77 351.305 330.15C351.305 330.53 351.238 330.863 351.105 331.15C350.978 331.437 350.795 331.66 350.555 331.82C350.321 331.973 350.045 332.05 349.725 332.05ZM349.725 331.6C350.051 331.6 350.311 331.473 350.505 331.22C350.705 330.96 350.805 330.603 350.805 330.15C350.805 329.697 350.705 329.343 350.505 329.09C350.311 328.83 350.051 328.7 349.725 328.7C349.398 328.7 349.135 328.83 348.935 329.09C348.741 329.343 348.645 329.697 348.645 330.15C348.645 330.603 348.741 330.96 348.935 331.22C349.135 331.473 349.398 331.6 349.725 331.6Z" fill="#999999"/>
<rect x="261.25" y="327.25" width="43.5" height="21.5" rx="10.75" fill="#ACACAC" fill-opacity="0.13" stroke="#999999" stroke-width="0.5"/>
<path d="M275.977 341V334.3L276.297 334.64H274.327V334H276.697V341H275.977ZM281.161 341.06C280.621 341.06 280.141 340.92 279.721 340.64C279.301 340.353 278.971 339.947 278.731 339.42C278.491 338.887 278.371 338.247 278.371 337.5C278.371 336.753 278.491 336.117 278.731 335.59C278.971 335.057 279.301 334.65 279.721 334.37C280.141 334.083 280.621 333.94 281.161 333.94C281.701 333.94 282.181 334.083 282.601 334.37C283.021 334.65 283.351 335.057 283.591 335.59C283.837 336.117 283.961 336.753 283.961 337.5C283.961 338.247 283.837 338.887 283.591 339.42C283.351 339.947 283.021 340.353 282.601 340.64C282.181 340.92 281.701 341.06 281.161 341.06ZM281.161 340.4C281.574 340.4 281.934 340.29 282.241 340.07C282.547 339.843 282.787 339.517 282.961 339.09C283.134 338.657 283.221 338.127 283.221 337.5C283.221 336.873 283.134 336.347 282.961 335.92C282.787 335.487 282.547 335.16 282.241 334.94C281.934 334.713 281.574 334.6 281.161 334.6C280.761 334.6 280.404 334.713 280.091 334.94C279.777 335.16 279.534 335.487 279.361 335.92C279.187 336.347 279.101 336.873 279.101 337.5C279.101 338.127 279.187 338.657 279.361 339.09C279.534 339.517 279.777 339.843 280.091 340.07C280.404 340.29 280.761 340.4 281.161 340.4ZM285.932 341L290.712 334H291.302L286.522 341H285.932ZM286.472 337.75C286.158 337.75 285.882 337.673 285.642 337.52C285.402 337.36 285.215 337.137 285.082 336.85C284.955 336.563 284.892 336.23 284.892 335.85C284.892 335.47 284.955 335.137 285.082 334.85C285.215 334.563 285.402 334.343 285.642 334.19C285.882 334.03 286.158 333.95 286.472 333.95C286.785 333.95 287.058 334.03 287.292 334.19C287.532 334.343 287.718 334.563 287.852 334.85C287.985 335.137 288.052 335.47 288.052 335.85C288.052 336.23 287.985 336.563 287.852 336.85C287.718 337.137 287.532 337.36 287.292 337.52C287.058 337.673 286.785 337.75 286.472 337.75ZM286.472 337.3C286.798 337.3 287.058 337.173 287.252 336.92C287.452 336.66 287.552 336.303 287.552 335.85C287.552 335.397 287.452 335.043 287.252 334.79C287.058 334.53 286.798 334.4 286.472 334.4C286.138 334.4 285.875 334.53 285.682 334.79C285.488 335.043 285.392 335.397 285.392 335.85C285.392 336.303 285.488 336.66 285.682 336.92C285.875 337.173 286.138 337.3 286.472 337.3ZM290.762 341.05C290.455 341.05 290.182 340.973 289.942 340.82C289.702 340.66 289.515 340.437 289.382 340.15C289.248 339.863 289.182 339.53 289.182 339.15C289.182 338.77 289.248 338.437 289.382 338.15C289.515 337.863 289.702 337.643 289.942 337.49C290.182 337.33 290.455 337.25 290.762 337.25C291.082 337.25 291.358 337.33 291.592 337.49C291.832 337.643 292.015 337.863 292.142 338.15C292.275 338.437 292.342 338.77 292.342 339.15C292.342 339.53 292.275 339.863 292.142 340.15C292.015 340.437 291.832 340.66 291.592 340.82C291.358 340.973 291.082 341.05 290.762 341.05ZM290.762 340.6C291.088 340.6 291.348 340.473 291.542 340.22C291.742 339.96 291.842 339.603 291.842 339.15C291.842 338.697 291.742 338.343 291.542 338.09C291.348 337.83 291.088 337.7 290.762 337.7C290.435 337.7 290.172 337.83 289.972 338.09C289.778 338.343 289.682 338.697 289.682 339.15C289.682 339.603 289.778 339.96 289.972 340.22C290.172 340.473 290.435 340.6 290.762 340.6Z" fill="#999999"/>
<rect x="201.25" y="334.25" width="43.5" height="21.5" rx="10.75" fill="#ACACAC" fill-opacity="0.13" stroke="#999999" stroke-width="0.5"/>
<path d="M218.16 348L221.18 341.32L221.4 341.64H217.07L217.44 341.29V342.95H216.73V341H221.87V341.51L218.94 348H218.16ZM223.759 348L228.539 341H229.129L224.349 348H223.759ZM224.299 344.75C223.985 344.75 223.709 344.673 223.469 344.52C223.229 344.36 223.042 344.137 222.909 343.85C222.782 343.563 222.719 343.23 222.719 342.85C222.719 342.47 222.782 342.137 222.909 341.85C223.042 341.563 223.229 341.343 223.469 341.19C223.709 341.03 223.985 340.95 224.299 340.95C224.612 340.95 224.885 341.03 225.119 341.19C225.359 341.343 225.545 341.563 225.679 341.85C225.812 342.137 225.879 342.47 225.879 342.85C225.879 343.23 225.812 343.563 225.679 343.85C225.545 344.137 225.359 344.36 225.119 344.52C224.885 344.673 224.612 344.75 224.299 344.75ZM224.299 344.3C224.625 344.3 224.885 344.173 225.079 343.92C225.279 343.66 225.379 343.303 225.379 342.85C225.379 342.397 225.279 342.043 225.079 341.79C224.885 341.53 224.625 341.4 224.299 341.4C223.965 341.4 223.702 341.53 223.509 341.79C223.315 342.043 223.219 342.397 223.219 342.85C223.219 343.303 223.315 343.66 223.509 343.92C223.702 344.173 223.965 344.3 224.299 344.3ZM228.589 348.05C228.282 348.05 228.009 347.973 227.769 347.82C227.529 347.66 227.342 347.437 227.209 347.15C227.075 346.863 227.009 346.53 227.009 346.15C227.009 345.77 227.075 345.437 227.209 345.15C227.342 344.863 227.529 344.643 227.769 344.49C228.009 344.33 228.282 344.25 228.589 344.25C228.909 344.25 229.185 344.33 229.419 344.49C229.659 344.643 229.842 344.863 229.969 345.15C230.102 345.437 230.169 345.77 230.169 346.15C230.169 346.53 230.102 346.863 229.969 347.15C229.842 347.437 229.659 347.66 229.419 347.82C229.185 347.973 228.909 348.05 228.589 348.05ZM228.589 347.6C228.915 347.6 229.175 347.473 229.369 347.22C229.569 346.96 229.669 346.603 229.669 346.15C229.669 345.697 229.569 345.343 229.369 345.09C229.175 344.83 228.915 344.7 228.589 344.7C228.262 344.7 227.999 344.83 227.799 345.09C227.605 345.343 227.509 345.697 227.509 346.15C227.509 346.603 227.605 346.96 227.799 347.22C227.999 347.473 228.262 347.6 228.589 347.6Z" fill="#999999"/>
<rect x="141.25" y="343.25" width="43.5" height="21.5" rx="10.75" fill="#ACACAC" fill-opacity="0.13" stroke="#999999" stroke-width="0.5"/>
<path d="M158.801 357.06C158.301 357.06 157.825 356.98 157.371 356.82C156.918 356.653 156.558 356.433 156.291 356.16L156.641 355.59C156.861 355.823 157.161 356.017 157.541 356.17C157.928 356.323 158.345 356.4 158.791 356.4C159.385 356.4 159.835 356.27 160.141 356.01C160.455 355.743 160.611 355.397 160.611 354.97C160.611 354.67 160.538 354.413 160.391 354.2C160.251 353.98 160.011 353.81 159.671 353.69C159.331 353.57 158.865 353.51 158.271 353.51H156.781L157.141 350H160.971V350.64H157.431L157.801 350.29L157.491 353.23L157.121 352.87H158.431C159.138 352.87 159.705 352.957 160.131 353.13C160.558 353.303 160.865 353.547 161.051 353.86C161.245 354.167 161.341 354.527 161.341 354.94C161.341 355.333 161.248 355.693 161.061 356.02C160.875 356.34 160.595 356.593 160.221 356.78C159.848 356.967 159.375 357.06 158.801 357.06ZM163.098 357L167.878 350H168.468L163.688 357H163.098ZM163.638 353.75C163.324 353.75 163.048 353.673 162.808 353.52C162.568 353.36 162.381 353.137 162.248 352.85C162.121 352.563 162.058 352.23 162.058 351.85C162.058 351.47 162.121 351.137 162.248 350.85C162.381 350.563 162.568 350.343 162.808 350.19C163.048 350.03 163.324 349.95 163.638 349.95C163.951 349.95 164.224 350.03 164.458 350.19C164.698 350.343 164.884 350.563 165.018 350.85C165.151 351.137 165.218 351.47 165.218 351.85C165.218 352.23 165.151 352.563 165.018 352.85C164.884 353.137 164.698 353.36 164.458 353.52C164.224 353.673 163.951 353.75 163.638 353.75ZM163.638 353.3C163.964 353.3 164.224 353.173 164.418 352.92C164.618 352.66 164.718 352.303 164.718 351.85C164.718 351.397 164.618 351.043 164.418 350.79C164.224 350.53 163.964 350.4 163.638 350.4C163.304 350.4 163.041 350.53 162.848 350.79C162.654 351.043 162.558 351.397 162.558 351.85C162.558 352.303 162.654 352.66 162.848 352.92C163.041 353.173 163.304 353.3 163.638 353.3ZM167.928 357.05C167.621 357.05 167.348 356.973 167.108 356.82C166.868 356.66 166.681 356.437 166.548 356.15C166.414 355.863 166.348 355.53 166.348 355.15C166.348 354.77 166.414 354.437 166.548 354.15C166.681 353.863 166.868 353.643 167.108 353.49C167.348 353.33 167.621 353.25 167.928 353.25C168.248 353.25 168.524 353.33 168.758 353.49C168.998 353.643 169.181 353.863 169.308 354.15C169.441 354.437 169.508 354.77 169.508 355.15C169.508 355.53 169.441 355.863 169.308 356.15C169.181 356.437 168.998 356.66 168.758 356.82C168.524 356.973 168.248 357.05 167.928 357.05ZM167.928 356.6C168.254 356.6 168.514 356.473 168.708 356.22C168.908 355.96 169.008 355.603 169.008 355.15C169.008 354.697 168.908 354.343 168.708 354.09C168.514 353.83 168.254 353.7 167.928 353.7C167.601 353.7 167.338 353.83 167.138 354.09C166.944 354.343 166.848 354.697 166.848 355.15C166.848 355.603 166.944 355.96 167.138 356.22C167.338 356.473 167.601 356.6 167.928 356.6Z" fill="#999999"/>
<rect x="21.25" y="19.25" width="89.5" height="24.5" rx="12.25" fill="#ACACAC" fill-opacity="0.13" stroke="#999999" stroke-width="0.5"/>
<path d="M48.7859 34.8462V27.1462H52.2399C53.1272 27.1462 53.8092 27.3259 54.2859 27.6852C54.7625 28.0372 55.0009 28.5212 55.0009 29.1372C55.0009 29.5552 54.9055 29.9072 54.7149 30.1932C54.5315 30.4792 54.2822 30.6992 53.9669 30.8532C53.6515 31.0072 53.3105 31.0842 52.9439 31.0842L53.1419 30.7542C53.5819 30.7542 53.9705 30.8312 54.3079 30.9852C54.6452 31.1392 54.9129 31.3665 55.1109 31.6672C55.3089 31.9605 55.4079 32.3272 55.4079 32.7672C55.4079 33.4272 55.1585 33.9405 54.6599 34.3072C54.1685 34.6665 53.4352 34.8462 52.4599 34.8462H48.7859ZM49.8859 33.9552H52.4159C53.0245 33.9552 53.4902 33.8525 53.8129 33.6472C54.1355 33.4419 54.2969 33.1192 54.2969 32.6792C54.2969 32.2319 54.1355 31.9055 53.8129 31.7002C53.4902 31.4949 53.0245 31.3922 52.4159 31.3922H49.7869V30.5012H52.1409C52.6982 30.5012 53.1309 30.3985 53.4389 30.1932C53.7469 29.9879 53.9009 29.6799 53.9009 29.2692C53.9009 28.8585 53.7469 28.5505 53.4389 28.3452C53.1309 28.1399 52.6982 28.0372 52.1409 28.0372H49.8859V33.9552ZM59.5531 34.9122C58.9297 34.9122 58.3797 34.7839 57.9031 34.5272C57.4337 34.2705 57.0671 33.9185 56.8031 33.4712C56.5464 33.0239 56.4181 32.5105 56.4181 31.9312C56.4181 31.3519 56.5427 30.8385 56.7921 30.3912C57.0487 29.9439 57.3971 29.5955 57.8371 29.3462C58.2844 29.0895 58.7867 28.9612 59.3441 28.9612C59.9087 28.9612 60.4074 29.0859 60.8401 29.3352C61.2727 29.5845 61.6101 29.9365 61.8521 30.3912C62.1014 30.8385 62.2261 31.3629 62.2261 31.9642C62.2261 32.0082 62.2224 32.0595 62.2151 32.1182C62.2151 32.1769 62.2114 32.2319 62.2041 32.2832H57.2431V31.5242H61.6541L61.2251 31.7882C61.2324 31.4142 61.1554 31.0805 60.9941 30.7872C60.8327 30.4939 60.6091 30.2665 60.3231 30.1052C60.0444 29.9365 59.7181 29.8522 59.3441 29.8522C58.9774 29.8522 58.6511 29.9365 58.3651 30.1052C58.0791 30.2665 57.8554 30.4975 57.6941 30.7982C57.5327 31.0915 57.4521 31.4289 57.4521 31.8102V31.9862C57.4521 32.3749 57.5401 32.7232 57.7161 33.0312C57.8994 33.3319 58.1524 33.5665 58.4751 33.7352C58.7977 33.9039 59.1681 33.9882 59.5861 33.9882C59.9307 33.9882 60.2424 33.9295 60.5211 33.8122C60.8071 33.6949 61.0564 33.5189 61.2691 33.2842L61.8521 33.9662C61.5881 34.2742 61.2581 34.5089 60.8621 34.6702C60.4734 34.8315 60.0371 34.9122 59.5531 34.9122ZM63.8464 34.8462V28.4992C63.8464 27.9272 64.0114 27.4725 64.3414 27.1352C64.6787 26.7905 65.1554 26.6182 65.7714 26.6182C65.9987 26.6182 66.2151 26.6475 66.4204 26.7062C66.6331 26.7575 66.8127 26.8419 66.9594 26.9592L66.6404 27.7622C66.5304 27.6742 66.4057 27.6082 66.2664 27.5642C66.1271 27.5129 65.9804 27.4872 65.8264 27.4872C65.5184 27.4872 65.2837 27.5752 65.1224 27.7512C64.9611 27.9199 64.8804 28.1729 64.8804 28.5102V29.2912L64.9024 29.7752V34.8462H63.8464ZM62.8564 29.8852V29.0162H66.5744V29.8852H62.8564ZM69.9814 34.9122C69.3947 34.9122 68.8741 34.7839 68.4194 34.5272C67.9647 34.2705 67.6054 33.9185 67.3414 33.4712C67.0774 33.0165 66.9454 32.5032 66.9454 31.9312C66.9454 31.3519 67.0774 30.8385 67.3414 30.3912C67.6054 29.9439 67.9647 29.5955 68.4194 29.3462C68.8741 29.0895 69.3947 28.9612 69.9814 28.9612C70.5607 28.9612 71.0777 29.0895 71.5324 29.3462C71.9944 29.5955 72.3537 29.9439 72.6104 30.3912C72.8744 30.8312 73.0064 31.3445 73.0064 31.9312C73.0064 32.5105 72.8744 33.0239 72.6104 33.4712C72.3537 33.9185 71.9944 34.2705 71.5324 34.5272C71.0777 34.7839 70.5607 34.9122 69.9814 34.9122ZM69.9814 33.9882C70.3554 33.9882 70.6891 33.9039 70.9824 33.7352C71.2831 33.5665 71.5177 33.3282 71.6864 33.0202C71.8551 32.7049 71.9394 32.3419 71.9394 31.9312C71.9394 31.5132 71.8551 31.1539 71.6864 30.8532C71.5177 30.5452 71.2831 30.3069 70.9824 30.1382C70.6891 29.9695 70.3554 29.8852 69.9814 29.8852C69.6074 29.8852 69.2737 29.9695 68.9804 30.1382C68.6871 30.3069 68.4524 30.5452 68.2764 30.8532C68.1004 31.1539 68.0124 31.5132 68.0124 31.9312C68.0124 32.3419 68.1004 32.7049 68.2764 33.0202C68.4524 33.3282 68.6871 33.5665 68.9804 33.7352C69.2737 33.9039 69.6074 33.9882 69.9814 33.9882ZM74.4668 34.8462V29.0162H75.4788V30.6002L75.3798 30.2042C75.5412 29.8009 75.8125 29.4929 76.1938 29.2802C76.5752 29.0675 77.0445 28.9612 77.6018 28.9612V29.9842C77.5578 29.9769 77.5138 29.9732 77.4698 29.9732C77.4332 29.9732 77.3965 29.9732 77.3598 29.9732C76.7952 29.9732 76.3478 30.1419 76.0178 30.4792C75.6878 30.8165 75.5228 31.3042 75.5228 31.9422V34.8462H74.4668ZM81.4456 34.9122C80.8223 34.9122 80.2723 34.7839 79.7956 34.5272C79.3263 34.2705 78.9596 33.9185 78.6956 33.4712C78.439 33.0239 78.3106 32.5105 78.3106 31.9312C78.3106 31.3519 78.4353 30.8385 78.6846 30.3912C78.9413 29.9439 79.2896 29.5955 79.7296 29.3462C80.177 29.0895 80.6793 28.9612 81.2366 28.9612C81.8013 28.9612 82.3 29.0859 82.7326 29.3352C83.1653 29.5845 83.5026 29.9365 83.7446 30.3912C83.994 30.8385 84.1186 31.3629 84.1186 31.9642C84.1186 32.0082 84.115 32.0595 84.1076 32.1182C84.1076 32.1769 84.104 32.2319 84.0966 32.2832H79.1356V31.5242H83.5466L83.1176 31.7882C83.125 31.4142 83.048 31.0805 82.8866 30.7872C82.7253 30.4939 82.5016 30.2665 82.2156 30.1052C81.937 29.9365 81.6106 29.8522 81.2366 29.8522C80.87 29.8522 80.5436 29.9365 80.2576 30.1052C79.9716 30.2665 79.748 30.4975 79.5866 30.7982C79.4253 31.0915 79.3446 31.4289 79.3446 31.8102V31.9862C79.3446 32.3749 79.4326 32.7232 79.6086 33.0312C79.792 33.3319 80.045 33.5665 80.3676 33.7352C80.6903 33.9039 81.0606 33.9882 81.4786 33.9882C81.8233 33.9882 82.135 33.9295 82.4136 33.8122C82.6996 33.6949 82.949 33.5189 83.1616 33.2842L83.7446 33.9662C83.4806 34.2742 83.1506 34.5089 82.7546 34.6702C82.366 34.8315 81.9296 34.9122 81.4456 34.9122ZM87.5271 34.8462L91.0141 27.1462H92.1031L95.6011 34.8462H94.4461L91.3331 27.7622H91.7731L88.6601 34.8462H87.5271ZM89.0121 32.9212L89.3091 32.0412H93.6431L93.9621 32.9212H89.0121ZM96.7497 34.8462V27.1462H97.8497V34.8462H96.7497Z" fill="white"/>
<path fill-rule="evenodd" clip-rule="evenodd" d="M33.5 39.1923C38.1944 39.1923 42 35.5331 42 31.0193C42 26.5054 38.1944 22.8462 33.5 22.8462C28.8056 22.8462 25 26.5054 25 31.0193C25 35.5331 28.8056 39.1923 33.5 39.1923ZM33.5 33.4231C34.8807 33.4231 36 32.3468 36 31.0192C36 29.6916 34.8807 28.6154 33.5 28.6154C32.1193 28.6154 31 29.6916 31 31.0192C31 32.3468 32.1193 33.4231 33.5 33.4231Z" fill="#999999"/>
<rect x="81.25" y="357.25" width="43.5" height="21.5" rx="10.75" fill="#ACACAC" fill-opacity="0.13" stroke="#999999" stroke-width="0.5"/>
<path d="M98.6911 371.06C98.1844 371.06 97.7044 370.98 97.2511 370.82C96.8044 370.653 96.4444 370.433 96.1711 370.16L96.5211 369.59C96.7477 369.823 97.0511 370.017 97.4311 370.17C97.8177 370.323 98.2377 370.4 98.6911 370.4C99.2711 370.4 99.7144 370.273 100.021 370.02C100.334 369.767 100.491 369.427 100.491 369C100.491 368.573 100.338 368.233 100.031 367.98C99.7311 367.727 99.2544 367.6 98.6011 367.6H98.1011V367.07L100.261 364.36L100.361 364.64H96.4611V364H100.961V364.51L98.8011 367.22L98.4511 366.99H98.7211C99.5611 366.99 100.188 367.177 100.601 367.55C101.021 367.923 101.231 368.403 101.231 368.99C101.231 369.383 101.138 369.737 100.951 370.05C100.764 370.363 100.481 370.61 100.101 370.79C99.7277 370.97 99.2577 371.06 98.6911 371.06ZM103.088 371L107.868 364H108.458L103.678 371H103.088ZM103.628 367.75C103.315 367.75 103.038 367.673 102.798 367.52C102.558 367.36 102.371 367.137 102.238 366.85C102.111 366.563 102.048 366.23 102.048 365.85C102.048 365.47 102.111 365.137 102.238 364.85C102.371 364.563 102.558 364.343 102.798 364.19C103.038 364.03 103.315 363.95 103.628 363.95C103.941 363.95 104.215 364.03 104.448 364.19C104.688 364.343 104.875 364.563 105.008 364.85C105.141 365.137 105.208 365.47 105.208 365.85C105.208 366.23 105.141 366.563 105.008 366.85C104.875 367.137 104.688 367.36 104.448 367.52C104.215 367.673 103.941 367.75 103.628 367.75ZM103.628 367.3C103.955 367.3 104.215 367.173 104.408 366.92C104.608 366.66 104.708 366.303 104.708 365.85C104.708 365.397 104.608 365.043 104.408 364.79C104.215 364.53 103.955 364.4 103.628 364.4C103.295 364.4 103.031 364.53 102.838 364.79C102.645 365.043 102.548 365.397 102.548 365.85C102.548 366.303 102.645 366.66 102.838 366.92C103.031 367.173 103.295 367.3 103.628 367.3ZM107.918 371.05C107.611 371.05 107.338 370.973 107.098 370.82C106.858 370.66 106.671 370.437 106.538 370.15C106.405 369.863 106.338 369.53 106.338 369.15C106.338 368.77 106.405 368.437 106.538 368.15C106.671 367.863 106.858 367.643 107.098 367.49C107.338 367.33 107.611 367.25 107.918 367.25C108.238 367.25 108.515 367.33 108.748 367.49C108.988 367.643 109.171 367.863 109.298 368.15C109.431 368.437 109.498 368.77 109.498 369.15C109.498 369.53 109.431 369.863 109.298 370.15C109.171 370.437 108.988 370.66 108.748 370.82C108.515 370.973 108.238 371.05 107.918 371.05ZM107.918 370.6C108.245 370.6 108.505 370.473 108.698 370.22C108.898 369.96 108.998 369.603 108.998 369.15C108.998 368.697 108.898 368.343 108.698 368.09C108.505 367.83 108.245 367.7 107.918 367.7C107.591 367.7 107.328 367.83 107.128 368.09C106.935 368.343 106.838 368.697 106.838 369.15C106.838 369.603 106.935 369.96 107.128 370.22C107.328 370.473 107.591 370.6 107.918 370.6Z" fill="#999999"/>
<rect x="21.25" y="361.25" width="43.5" height="21.5" rx="10.75" fill="#ACACAC" fill-opacity="0.13" stroke="#999999" stroke-width="0.5"/>
<path d="M38.7879 375V368.3L39.1079 368.64H37.1379V368H39.5079V375H38.7879ZM42.1211 375L46.9011 368H47.4911L42.7111 375H42.1211ZM42.6611 371.75C42.3478 371.75 42.0711 371.673 41.8311 371.52C41.5911 371.36 41.4045 371.137 41.2711 370.85C41.1445 370.563 41.0811 370.23 41.0811 369.85C41.0811 369.47 41.1445 369.137 41.2711 368.85C41.4045 368.563 41.5911 368.343 41.8311 368.19C42.0711 368.03 42.3478 367.95 42.6611 367.95C42.9745 367.95 43.2478 368.03 43.4811 368.19C43.7211 368.343 43.9078 368.563 44.0411 368.85C44.1745 369.137 44.2411 369.47 44.2411 369.85C44.2411 370.23 44.1745 370.563 44.0411 370.85C43.9078 371.137 43.7211 371.36 43.4811 371.52C43.2478 371.673 42.9745 371.75 42.6611 371.75ZM42.6611 371.3C42.9878 371.3 43.2478 371.173 43.4411 370.92C43.6411 370.66 43.7411 370.303 43.7411 369.85C43.7411 369.397 43.6411 369.043 43.4411 368.79C43.2478 368.53 42.9878 368.4 42.6611 368.4C42.3278 368.4 42.0645 368.53 41.8711 368.79C41.6778 369.043 41.5811 369.397 41.5811 369.85C41.5811 370.303 41.6778 370.66 41.8711 370.92C42.0645 371.173 42.3278 371.3 42.6611 371.3ZM46.9511 375.05C46.6445 375.05 46.3711 374.973 46.1311 374.82C45.8911 374.66 45.7045 374.437 45.5711 374.15C45.4378 373.863 45.3711 373.53 45.3711 373.15C45.3711 372.77 45.4378 372.437 45.5711 372.15C45.7045 371.863 45.8911 371.643 46.1311 371.49C46.3711 371.33 46.6445 371.25 46.9511 371.25C47.2711 371.25 47.5478 371.33 47.7811 371.49C48.0211 371.643 48.2045 371.863 48.3311 372.15C48.4645 372.437 48.5311 372.77 48.5311 373.15C48.5311 373.53 48.4645 373.863 48.3311 374.15C48.2045 374.437 48.0211 374.66 47.7811 374.82C47.5478 374.973 47.2711 375.05 46.9511 375.05ZM46.9511 374.6C47.2778 374.6 47.5378 374.473 47.7311 374.22C47.9311 373.96 48.0311 373.603 48.0311 373.15C48.0311 372.697 47.9311 372.343 47.7311 372.09C47.5378 371.83 47.2778 371.7 46.9511 371.7C46.6245 371.7 46.3611 371.83 46.1611 372.09C45.9678 372.343 45.8711 372.697 45.8711 373.15C45.8711 373.603 45.9678 373.96 46.1611 374.22C46.3611 374.473 46.6245 374.6 46.9511 374.6Z" fill="#999999"/>
<defs>
<linearGradient id="paint0_linear_97_410" x1="0" y1="360" x2="625" y2="360" gradientUnits="userSpaceOnUse">
<stop stop-opacity="0"/>
<stop offset="0.1" stop-color="#070707"/>
<stop offset="0.9" stop-color="#070707"/>
<stop offset="1" stop-opacity="0"/>
</linearGradient>
<linearGradient id="paint1_linear_97_410" x1="0" y1="200" x2="625" y2="200" gradientUnits="userSpaceOnUse">
<stop stop-opacity="0"/>
<stop offset="0.1" stop-color="#070707"/>
<stop offset="0.9" stop-color="#070707"/>
<stop offset="1" stop-opacity="0"/>
</linearGradient>
<linearGradient id="paint2_linear_97_410" x1="0" y1="40" x2="625" y2="40" gradientUnits="userSpaceOnUse">
<stop stop-opacity="0"/>
<stop offset="0.1" stop-color="#070707"/>
<stop offset="0.9" stop-color="#070707"/>
<stop offset="1" stop-opacity="0"/>
</linearGradient>
<linearGradient id="paint3_linear_97_410" x1="0" y1="120" x2="625" y2="120" gradientUnits="userSpaceOnUse">
<stop stop-opacity="0"/>
<stop offset="0.1" stop-color="#0D0D0D"/>
<stop offset="0.9" stop-color="#0D0D0D"/>
<stop offset="1" stop-opacity="0"/>
</linearGradient>
<linearGradient id="paint4_linear_97_410" x1="0" y1="280" x2="625" y2="280" gradientUnits="userSpaceOnUse">
<stop stop-opacity="0"/>
<stop offset="0.1" stop-color="#0D0D0D"/>
<stop offset="0.9" stop-color="#0D0D0D"/>
<stop offset="1" stop-opacity="0"/>
</linearGradient>
</defs>
</svg>
