<svg width="47" height="47" viewBox="0 0 47 47" fill="none" xmlns="http://www.w3.org/2000/svg">
<rect width="47" height="47" rx="13" fill="#E85823"/>
<path d="M8.58408 32L16.2341 14.5H22.0341L29.6841 32H23.5841L17.9341 17.3H20.2341L14.5841 32H8.58408ZM13.1341 28.95L14.6341 24.7H22.6841L24.1841 28.95H13.1341ZM30.6257 32V14.5H36.5257V32H30.6257Z" fill="black"/>
<path d="M8 14.5H19.5L12.375 24.5L12.4495 24.2936C13.8684 20.3626 11.8941 16.0172 8 14.5Z" fill="black"/>
<path d="M42.5 32L31 32L36.5 22C35.9136 26.2648 38.3291 30.375 42.3403 31.9378L42.5 32Z" fill="black"/>
</svg>
