<svg width="132" height="47" viewBox="0 0 132 47" fill="none" xmlns="http://www.w3.org/2000/svg">
<rect width="47" height="47" rx="13" fill="#E85823"/>
<path d="M8.58408 32L16.2341 14.5H22.0341L29.6841 32H23.5841L17.9341 17.3H20.2341L14.5841 32H8.58408ZM13.1341 28.95L14.6341 24.7H22.6841L24.1841 28.95H13.1341ZM30.6257 32V14.5H36.5257V32H30.6257Z" fill="black"/>
<path d="M70.5106 19.28C71.5346 19.28 72.4226 19.48 73.1746 19.88C73.9426 20.264 74.5346 20.856 74.9506 21.656C75.3826 22.456 75.5986 23.464 75.5986 24.68V32H73.8946V24.848C73.8946 23.52 73.5746 22.52 72.9346 21.848C72.3106 21.16 71.4226 20.816 70.2706 20.816C69.4066 20.816 68.6546 21 68.0146 21.368C67.3906 21.72 66.9026 22.24 66.5506 22.928C66.2146 23.6 66.0466 24.416 66.0466 25.376V32H64.3426V24.848C64.3426 23.52 64.0226 22.52 63.3826 21.848C62.7426 21.16 61.8466 20.816 60.6946 20.816C59.8466 20.816 59.1026 21 58.4626 21.368C57.8226 21.72 57.3266 22.24 56.9746 22.928C56.6386 23.6 56.4706 24.416 56.4706 25.376V32H54.7666V19.4H56.3986V22.808L56.1346 22.208C56.5186 21.296 57.1346 20.584 57.9826 20.072C58.8466 19.544 59.8626 19.28 61.0306 19.28C62.2626 19.28 63.3106 19.592 64.1746 20.216C65.0386 20.824 65.5986 21.744 65.8546 22.976L65.1826 22.712C65.5506 21.688 66.1986 20.864 67.1266 20.24C68.0706 19.6 69.1986 19.28 70.5106 19.28ZM86.7238 32.12C85.6358 32.12 84.6518 31.872 83.7718 31.376C82.8918 30.864 82.1878 30.136 81.6598 29.192C81.1478 28.232 80.8918 27.064 80.8918 25.688C80.8918 24.312 81.1478 23.152 81.6598 22.208C82.1718 21.248 82.8678 20.52 83.7478 20.024C84.6278 19.528 85.6198 19.28 86.7238 19.28C87.9238 19.28 88.9958 19.552 89.9398 20.096C90.8998 20.624 91.6518 21.376 92.1958 22.352C92.7398 23.312 93.0118 24.424 93.0118 25.688C93.0118 26.968 92.7398 28.088 92.1958 29.048C91.6518 30.008 90.8998 30.76 89.9398 31.304C88.9958 31.848 87.9238 32.12 86.7238 32.12ZM80.2198 36.656V19.4H81.8518V23.192L81.6838 25.712L81.9238 28.256V36.656H80.2198ZM86.6038 30.608C87.4998 30.608 88.2998 30.408 89.0038 30.008C89.7078 29.592 90.2678 29.016 90.6838 28.28C91.0998 27.528 91.3078 26.664 91.3078 25.688C91.3078 24.712 91.0998 23.856 90.6838 23.12C90.2678 22.384 89.7078 21.808 89.0038 21.392C88.2998 20.976 87.4998 20.768 86.6038 20.768C85.7078 20.768 84.8998 20.976 84.1797 21.392C83.4758 21.808 82.9158 22.384 82.4998 23.12C82.0998 23.856 81.8998 24.712 81.8998 25.688C81.8998 26.664 82.0998 27.528 82.4998 28.28C82.9158 29.016 83.4758 29.592 84.1797 30.008C84.8998 30.408 85.7078 30.608 86.6038 30.608ZM104.311 32V29.216L104.239 28.76V24.104C104.239 23.032 103.935 22.208 103.327 21.632C102.735 21.056 101.847 20.768 100.663 20.768C99.8471 20.768 99.0711 20.904 98.3351 21.176C97.5991 21.448 96.9751 21.808 96.4631 22.256L95.6951 20.984C96.3351 20.44 97.1031 20.024 97.9991 19.736C98.8951 19.432 99.8391 19.28 100.831 19.28C102.463 19.28 103.719 19.688 104.599 20.504C105.495 21.304 105.943 22.528 105.943 24.176V32H104.311ZM99.9671 32.12C99.0231 32.12 98.1991 31.968 97.4951 31.664C96.8071 31.344 96.2791 30.912 95.9111 30.368C95.5431 29.808 95.3591 29.168 95.3591 28.448C95.3591 27.792 95.5111 27.2 95.8151 26.672C96.1351 26.128 96.6471 25.696 97.3511 25.376C98.0711 25.04 99.0311 24.872 100.231 24.872H104.575V26.144H100.279C99.0631 26.144 98.2151 26.36 97.7351 26.792C97.2711 27.224 97.0391 27.76 97.0391 28.4C97.0391 29.12 97.3191 29.696 97.8791 30.128C98.4391 30.56 99.2231 30.776 100.231 30.776C101.191 30.776 102.015 30.56 102.703 30.128C103.407 29.68 103.919 29.04 104.239 28.208L104.623 29.384C104.303 30.216 103.743 30.88 102.943 31.376C102.159 31.872 101.167 32.12 99.9671 32.12ZM115.803 32.12C114.555 32.12 113.435 31.848 112.443 31.304C111.467 30.744 110.699 29.984 110.139 29.024C109.579 28.048 109.299 26.936 109.299 25.688C109.299 24.424 109.579 23.312 110.139 22.352C110.699 21.392 111.467 20.64 112.443 20.096C113.435 19.552 114.555 19.28 115.803 19.28C116.875 19.28 117.843 19.488 118.707 19.904C119.571 20.32 120.251 20.944 120.747 21.776L119.475 22.64C119.043 22 118.507 21.528 117.867 21.224C117.227 20.92 116.531 20.768 115.779 20.768C114.883 20.768 114.075 20.976 113.355 21.392C112.635 21.792 112.067 22.36 111.651 23.096C111.235 23.832 111.027 24.696 111.027 25.688C111.027 26.68 111.235 27.544 111.651 28.28C112.067 29.016 112.635 29.592 113.355 30.008C114.075 30.408 114.883 30.608 115.779 30.608C116.531 30.608 117.227 30.456 117.867 30.152C118.507 29.848 119.043 29.384 119.475 28.76L120.747 29.624C120.251 30.44 119.571 31.064 118.707 31.496C117.843 31.912 116.875 32.12 115.803 32.12ZM128.219 32.12C127.035 32.12 126.123 31.8 125.483 31.16C124.843 30.52 124.523 29.616 124.523 28.448V16.616H126.227V28.352C126.227 29.088 126.411 29.656 126.779 30.056C127.163 30.456 127.707 30.656 128.411 30.656C129.163 30.656 129.787 30.44 130.283 30.008L130.883 31.232C130.547 31.536 130.139 31.76 129.659 31.904C129.195 32.048 128.715 32.12 128.219 32.12ZM122.267 20.816V19.4H130.067V20.816H122.267Z" fill="white"/>
<path d="M9 14.5H20.5L13.375 24.5L13.4495 24.2936C14.8684 20.3626 12.8941 16.0172 9 14.5Z" fill="black"/>
<path d="M42.5 32L31 32L36.5 22C35.9136 26.2648 38.3291 30.375 42.3403 31.9378L42.5 32Z" fill="black"/>
</svg>
