<svg width="25" height="25" viewBox="0 0 25 25" fill="none" xmlns="http://www.w3.org/2000/svg">
<path d="M12.0223 5.55306C12.2485 4.49966 13.7515 4.49966 13.9777 5.55306L14.9856 10.2466C15.0682 10.6313 15.3687 10.9318 15.7534 11.0144L20.4469 12.0223C21.5003 12.2485 21.5003 13.7515 20.4469 13.9777L15.7534 14.9856C15.3687 15.0682 15.0682 15.3687 14.9856 15.7534L13.9777 20.4469C13.7515 21.5003 12.2485 21.5003 12.0223 20.4469L11.0144 15.7534C10.9318 15.3687 10.6313 15.0682 10.2466 14.9856L5.55306 13.9777C4.49966 13.7515 4.49966 12.2485 5.55306 12.0223L10.2466 11.0144C10.6313 10.9318 10.9318 10.6313 11.0144 10.2466L12.0223 5.55306Z" fill="url(#paint0_linear_122_5)"/>
<path d="M4.36701 2.16446C4.55199 1.53194 5.44801 1.53194 5.63299 2.16446L6.03003 3.5221C6.09317 3.738 6.262 3.90683 6.4779 3.96997L7.83554 4.36701C8.46806 4.55199 8.46806 5.44801 7.83554 5.63299L6.4779 6.03003C6.262 6.09317 6.09317 6.262 6.03003 6.4779L5.63299 7.83554C5.44801 8.46806 4.55199 8.46806 4.36701 7.83554L3.96997 6.4779C3.90683 6.262 3.738 6.09317 3.5221 6.03003L2.16446 5.63299C1.53194 5.44801 1.53194 4.55199 2.16446 4.36701L3.5221 3.96997C3.738 3.90683 3.90683 3.738 3.96997 3.5221L4.36701 2.16446Z" fill="url(#paint1_linear_122_5)"/>
<defs>
<linearGradient id="paint0_linear_122_5" x1="13" y1="4.5" x2="13" y2="21.5" gradientUnits="userSpaceOnUse">
<stop stop-color="#FEAB26"/>
<stop offset="1" stop-color="#E85823"/>
</linearGradient>
<linearGradient id="paint1_linear_122_5" x1="5" y1="1.45833" x2="5" y2="8.54167" gradientUnits="userSpaceOnUse">
<stop stop-color="#FEAB26"/>
<stop offset="1" stop-color="#E85823"/>
</linearGradient>
</defs>
</svg>
