<svg width="1728" height="1117" viewBox="0 0 1728 1117" fill="none" xmlns="http://www.w3.org/2000/svg">
<rect x="0.999466" y="1.99646" width="1727" height="1115" fill="url(#paint0_linear_11_296)"/>
<path fill-rule="evenodd" clip-rule="evenodd" d="M1728 1.99646H1614.07V149.728H1728V151.728H1614.07V299.46H1728V301.46H1614.07V449.192H1728V451.192H1614.07V598.924H1728V600.924H1614.07V748.656H1728V750.656H1614.07V898.388H1728V900.388H1614.07V1048.12H1728V1050.12H1614.07V1117H1612.07V1050.12H1464.15V1117H1462.15V1050.12H1314.24V1117H1312.24V1050.12H1164.33V1117H1162.33V1050.12H1014.41V1117H1012.41V1050.12H864.5V1117H862.5V1050.12H714.587V1117H712.587V1050.12H564.673V1117H562.673V1050.12H414.76V1117H412.76V1050.12H264.847V1117H262.847V1050.12H114.934V1117H112.934V1050.12H1.99892V1048.12H112.934V900.388H1.99892V898.388H112.934V750.656H1.99892V748.656H112.934L112.934 600.924H1.99895V598.924H112.934L112.934 451.192H1.99895V449.192H112.934L112.934 301.46H1.99895V299.46H112.934L112.934 151.728H1.99895V149.728H112.934L112.934 1.99646H1.99895V-0.00354004H1728V1.99646ZM114.934 900.388V1048.12H262.847V900.388H114.934ZM262.847 898.388H114.934V750.656H262.847V898.388ZM264.847 900.388V1048.12H412.76V900.388H264.847ZM412.76 898.388H264.847V750.656H412.76V898.388ZM414.76 900.388V1048.12H562.673V900.388H414.76ZM562.673 898.388H414.76V750.656H562.673V898.388ZM564.673 900.388V1048.12H712.587V900.388H564.673ZM712.587 898.388H564.673V750.656H712.587V898.388ZM714.587 900.388V1048.12H862.5V900.388H714.587ZM862.5 898.388H714.587V750.656H862.5V898.388ZM864.5 900.388V1048.12H1012.41V900.388H864.5ZM1012.41 898.388H864.5V750.656H1012.41V898.388ZM1014.41 900.388V1048.12H1162.33V900.388H1014.41ZM1162.33 898.388H1014.41V750.656H1162.33V898.388ZM1164.33 900.388V1048.12H1312.24V900.388H1164.33ZM1312.24 898.388H1164.33V750.656H1312.24V898.388ZM1314.24 900.388V1048.12H1462.15V900.388H1314.24ZM1462.15 898.388H1314.24V750.656H1462.15V898.388ZM1464.15 900.388V1048.12H1612.07V900.388H1464.15ZM1612.07 898.388H1464.15V750.656H1612.07V898.388ZM114.934 748.656H262.847V600.924H114.934L114.934 748.656ZM264.847 748.656H412.76V600.924H264.847V748.656ZM414.76 748.656H562.673V600.924H414.76V748.656ZM564.673 748.656H712.587V600.924H564.673V748.656ZM714.587 748.656H862.5V600.924H714.587V748.656ZM864.5 748.656H1012.41V600.924H864.5V748.656ZM1014.41 748.656H1162.33V600.924H1014.41V748.656ZM1164.33 748.656H1312.24V600.924H1164.33V748.656ZM1314.24 748.656H1462.15V600.924H1314.24V748.656ZM1464.15 748.656H1612.07V600.924H1464.15V748.656ZM1612.07 451.192V598.924H1464.15V451.192H1612.07ZM1462.15 451.192V598.924H1314.24V451.192H1462.15ZM1312.24 451.192V598.924H1164.33V451.192H1312.24ZM1162.33 451.192V598.924H1014.41V451.192H1162.33ZM1012.41 451.192V598.924H864.5V451.192H1012.41ZM862.5 451.192V598.924H714.587V451.192H862.5ZM712.587 451.192V598.924H564.673V451.192H712.587ZM562.673 451.192V598.924H414.76V451.192H562.673ZM412.76 451.192V598.924H264.847V451.192H412.76ZM262.847 451.192V598.924H114.934L114.934 451.192H262.847ZM114.934 301.46L114.934 449.192H262.847V301.46H114.934ZM262.847 299.46H114.934L114.934 151.728H262.847V299.46ZM264.847 301.46V449.192H412.76V301.46H264.847ZM412.76 299.46H264.847V151.728H412.76V299.46ZM414.76 301.46V449.192H562.673V301.46H414.76ZM562.673 299.46H414.76V151.728H562.673V299.46ZM564.673 301.46V449.192H712.587V301.46H564.673ZM712.587 299.46H564.673V151.728H712.587V299.46ZM714.587 301.46V449.192H862.5V301.46H714.587ZM862.5 299.46H714.587V151.728H862.5V299.46ZM864.5 301.46V449.192H1012.41V301.46H864.5ZM1012.41 299.46H864.5V151.728H1012.41V299.46ZM1014.41 301.46V449.192H1162.33V301.46H1014.41ZM1162.33 299.46H1014.41V151.728H1162.33V299.46ZM1164.33 301.46V449.192H1312.24V301.46H1164.33ZM1312.24 299.46H1164.33V151.728H1312.24V299.46ZM1314.24 301.46V449.192H1462.15V301.46H1314.24ZM1462.15 299.46H1314.24V151.728H1462.15V299.46ZM1464.15 301.46V449.192H1612.07V301.46H1464.15ZM1612.07 299.46H1464.15V151.728H1612.07V299.46ZM114.934 149.728H262.847V1.99646H114.934L114.934 149.728ZM264.847 149.728H412.76V1.99646H264.847V149.728ZM414.76 149.728H562.673V1.99646H414.76V149.728ZM564.673 149.728H712.587V1.99646H564.673V149.728ZM714.587 149.728H862.5V1.99646H714.587V149.728ZM864.5 149.728H1012.41V1.99646H864.5V149.728ZM1014.41 149.728H1162.33V1.99646H1014.41V149.728ZM1164.33 149.728H1312.24V1.99646H1164.33V149.728ZM1314.24 149.728H1462.15V1.99646H1314.24V149.728ZM1464.15 149.728H1612.07V1.99646H1464.15V149.728ZM1.99889 1117L1.99884 1.99646H-0.00115967L-0.00111091 1117H1.99889Z" fill="url(#paint1_linear_11_296)"/>
<defs>
<linearGradient id="paint0_linear_11_296" x1="0.999466" y1="1.99646" x2="1726.77" y2="1118.9" gradientUnits="userSpaceOnUse">
<stop stop-color="white"/>
<stop offset="1" stop-color="#F4F4F4"/>
</linearGradient>
<linearGradient id="paint1_linear_11_296" x1="-0.001062" y1="21.7386" x2="4016.98" y2="2538.46" gradientUnits="userSpaceOnUse">
<stop stop-color="white"/>
<stop offset="1" stop-color="#C5C5C5"/>
</linearGradient>
</defs>
</svg>
